<svg xmlns="http://www.w3.org/2000/svg" style="display:none">

  <!-- categorias -->
  <symbol id="ic-camisa" viewBox="0 0 64 64" fill="none" stroke="currentColor" stroke-width="2.4" stroke-linecap="round" stroke-linejoin="round">
    <path d="M22 10 L14 16 L8 24 L16 30 L20 26 L20 54 L44 54 L44 26 L48 30 L56 24 L50 16 L42 10 L36 15 Q32 18 28 15 Z"/>
    <path d="M28 15 Q32 18 36 15"/>
  </symbol>

  <symbol id="ic-calca" viewBox="0 0 64 64" fill="none" stroke="currentColor" stroke-width="2.4" stroke-linecap="round" stroke-linejoin="round">
    <path d="M18 8 L46 8 L48 22 L52 56 L40 56 L34 26 L30 26 L26 56 L14 56 L18 22 Z"/>
    <path d="M18 8 L46 8"/>
    <path d="M19 20 L45 20"/>
  </symbol>

  <symbol id="ic-terno" viewBox="0 0 64 64" fill="none" stroke="currentColor" stroke-width="2.4" stroke-linecap="round" stroke-linejoin="round">
    <path d="M22 10 L14 16 L10 26 L17 31 L20 27 L20 56 L44 56 L44 27 L47 31 L54 26 L50 16 L42 10 L34 20 L32 24 L30 20 Z"/>
    <path d="M28 15 L32 24 L36 15"/>
    <circle cx="32" cy="40" r="1.6" fill="currentColor" stroke="none"/>
    <circle cx="32" cy="48" r="1.6" fill="currentColor" stroke="none"/>
  </symbol>

  <symbol id="ic-jaqueta" viewBox="0 0 64 64" fill="none" stroke="currentColor" stroke-width="2.4" stroke-linecap="round" stroke-linejoin="round">
    <path d="M24 9 L14 14 L6 24 L14 30 L18 25 L18 55 L46 55 L46 25 L50 30 L58 24 L50 14 L40 9 L32 16 Z"/>
    <path d="M32 16 L32 55"/>
    <path d="M24 9 L28 16 M40 9 L36 16"/>
  </symbol>

  <symbol id="ic-crianca" viewBox="0 0 64 64" fill="none" stroke="currentColor" stroke-width="2.4" stroke-linecap="round" stroke-linejoin="round">
    <circle cx="32" cy="16" r="8"/>
    <path d="M20 40 L16 22 L24 26 L32 24 L40 26 L48 22 L44 40 Z"/>
    <path d="M24 40 L22 56 M40 40 L42 56"/>
  </symbol>

  <symbol id="ic-acessorio" viewBox="0 0 64 64" fill="none" stroke="currentColor" stroke-width="2.4" stroke-linecap="round" stroke-linejoin="round">
    <rect x="12" y="24" width="40" height="26" rx="4"/>
    <path d="M22 24 L22 16 Q22 10 32 10 Q42 10 42 16 L42 24"/>
    <circle cx="32" cy="37" r="4"/>
  </symbol>

  <symbol id="ic-selo" viewBox="0 0 64 64" fill="none" stroke="currentColor" stroke-width="2.4" stroke-linecap="round" stroke-linejoin="round">
    <circle cx="32" cy="32" r="26"/>
    <path d="M22 33 L28 39 L43 24"/>
  </symbol>

  <symbol id="ic-pin" viewBox="0 0 24 24" fill="none" stroke="currentColor" stroke-width="2" stroke-linecap="round" stroke-linejoin="round">
    <path d="M12 22 C12 22 5 14.5 5 9.5 C5 5.4 8.1 2 12 2 C15.9 2 19 5.4 19 9.5 C19 14.5 12 22 12 22 Z"/>
    <circle cx="12" cy="9.5" r="2.6"/>
  </symbol>

  <!-- ações -->
  <symbol id="ic-search" viewBox="0 0 24 24" fill="none" stroke="currentColor" stroke-width="2" stroke-linecap="round" stroke-linejoin="round">
    <circle cx="11" cy="11" r="7"/>
    <path d="M21 21 L16.65 16.65"/>
  </symbol>

  <symbol id="ic-heart" viewBox="0 0 24 24" fill="none" stroke="currentColor" stroke-width="2" stroke-linecap="round" stroke-linejoin="round">
    <path d="M12 20 C6 15 2 11.5 2 7.8 C2 4.9 4.3 3 6.8 3 C8.6 3 10.4 4 12 6 C13.6 4 15.4 3 17.2 3 C19.7 3 22 4.9 22 7.8 C22 11.5 18 15 12 20 Z"/>
  </symbol>

  <symbol id="ic-bag" viewBox="0 0 24 24" fill="none" stroke="currentColor" stroke-width="2" stroke-linecap="round" stroke-linejoin="round">
    <path d="M6 8 L18 8 L19 21 L5 21 Z"/>
    <path d="M9 8 L9 5.5 Q9 2.5 12 2.5 Q15 2.5 15 5.5 L15 8"/>
  </symbol>

  <symbol id="ic-close" viewBox="0 0 24 24" fill="none" stroke="currentColor" stroke-width="2" stroke-linecap="round" stroke-linejoin="round">
    <path d="M6 6 L18 18 M18 6 L6 18"/>
  </symbol>

  <symbol id="ic-chevron" viewBox="0 0 24 24" fill="none" stroke="currentColor" stroke-width="2" stroke-linecap="round" stroke-linejoin="round">
    <path d="M6 9 L12 15 L18 9"/>
  </symbol>

  <symbol id="ic-whats" viewBox="0 0 24 24" fill="currentColor">
    <path d="M12.04 2C6.58 2 2.13 6.45 2.13 11.91c0 1.79.47 3.47 1.29 4.93L2 22l5.29-1.39c1.4.76 3 1.2 4.71 1.2h.01c5.46 0 9.91-4.45 9.91-9.91C21.92 6.45 17.5 2 12.04 2zm5.79 14.02c-.24.68-1.4 1.32-1.94 1.4-.5.08-1.13.11-1.82-.11-.42-.13-.96-.31-1.65-.6-2.9-1.25-4.79-4.16-4.94-4.35-.14-.19-1.18-1.57-1.18-3 0-1.42.75-2.12 1.02-2.41.27-.29.58-.36.78-.36.19 0 .39 0 .56.01.18.01.42-.07.65.5.24.58.82 2 .89 2.15.07.14.12.31.02.5-.09.19-.14.31-.28.48-.14.16-.29.36-.42.49-.14.14-.28.28-.12.56.16.28.72 1.19 1.55 1.93 1.06.95 1.96 1.24 2.24 1.38.28.14.44.12.61-.07.16-.19.7-.81.88-1.09.19-.28.37-.23.62-.14.26.09 1.64.77 1.92.91.28.14.47.21.54.33.07.12.07.68-.17 1.36z"/>
  </symbol>

  <symbol id="ic-shield" viewBox="0 0 24 24" fill="none" stroke="currentColor" stroke-width="2" stroke-linecap="round" stroke-linejoin="round">
    <path d="M12 3 L20 6 L20 11 Q20 18 12 21 Q4 18 4 11 L4 6 Z"/>
    <path d="M9 12 L11.3 14.3 L15.5 9.5"/>
  </symbol>

  <symbol id="ic-star" viewBox="0 0 24 24" fill="none" stroke="currentColor" stroke-width="2" stroke-linecap="round" stroke-linejoin="round">
    <path d="M12 2.5 L15 9 L22 10 L17 15 L18.3 21.5 L12 18.2 L5.7 21.5 L7 15 L2 10 L9 9 Z"/>
  </symbol>

  <symbol id="ic-truck" viewBox="0 0 24 24" fill="none" stroke="currentColor" stroke-width="2" stroke-linecap="round" stroke-linejoin="round">
    <rect x="2" y="6" width="12" height="11" rx="1"/>
    <path d="M14 10 L18 10 L21.5 13.5 L21.5 17 L14 17"/>
    <circle cx="6.5" cy="19" r="1.8"/>
    <circle cx="17.5" cy="19" r="1.8"/>
  </symbol>

</svg>
